<svg width="45" height="46" viewBox="0 0 45 46" fill="none" xmlns="http://www.w3.org/2000/svg">
<path fill-rule="evenodd" clip-rule="evenodd" d="M3.21429 5.75C3.21429 4.22501 3.89158 2.76247 5.09717 1.68414C6.30276 0.605802 7.93789 0 9.64286 0H35.3571C37.0621 0 38.6972 0.605802 39.9028 1.68414C41.1084 2.76247 41.7857 4.22501 41.7857 5.75V40.25C42.6382 40.25 43.4558 40.5529 44.0586 41.0921C44.6614 41.6312 45 42.3625 45 43.125C45 43.8875 44.6614 44.6188 44.0586 45.1579C43.4558 45.6971 42.6382 46 41.7857 46H32.1429C31.2904 46 30.4728 45.6971 29.87 45.1579C29.2672 44.6188 28.9286 43.8875 28.9286 43.125V37.375C28.9286 36.6125 28.5899 35.8812 27.9871 35.3421C27.3843 34.8029 26.5668 34.5 25.7143 34.5H19.2857C18.4332 34.5 17.6157 34.8029 17.0129 35.3421C16.4101 35.8812 16.0714 36.6125 16.0714 37.375V43.125C16.0714 43.8875 15.7328 44.6188 15.13 45.1579C14.5272 45.6971 13.7096 46 12.8571 46H3.21429C2.3618 46 1.54424 45.6971 0.941442 45.1579C0.338647 44.6188 0 43.8875 0 43.125C0 42.3625 0.338647 41.6312 0.941442 41.0921C1.54424 40.5529 2.3618 40.25 3.21429 40.25V5.75ZM12.8571 8.625H19.2857V14.375H12.8571V8.625ZM19.2857 20.125H12.8571V25.875H19.2857V20.125ZM25.7143 8.625H32.1429V14.375H25.7143V8.625ZM32.1429 20.125H25.7143V25.875H32.1429V20.125Z" fill="#27B973"/>
</svg>
