<svg width="328" height="81" viewBox="0 0 328 81" fill="none" xmlns="http://www.w3.org/2000/svg">
<path fill-rule="evenodd" clip-rule="evenodd" d="M5.19353 9.315C5.19353 6.84451 6.28787 4.4752 8.23582 2.7283C10.1838 0.981399 12.8258 0 15.5806 0H57.1288C59.8836 0 62.5256 0.981399 64.4735 2.7283C66.4215 4.4752 67.5158 6.84451 67.5158 9.315V65.205C68.8932 65.205 70.2142 65.6957 71.1882 66.5691C72.1622 67.4426 72.7094 68.6273 72.7094 69.8625C72.7094 71.0977 72.1622 72.2824 71.1882 73.1559C70.2142 74.0293 68.8932 74.52 67.5158 74.52H51.9353C50.5578 74.52 49.2369 74.0293 48.2629 73.1559C47.2889 72.2824 46.7417 71.0977 46.7417 69.8625V60.5475C46.7417 59.3123 46.1946 58.1276 45.2206 57.2541C44.2466 56.3807 42.9256 55.89 41.5482 55.89H31.1612C29.7837 55.89 28.4628 56.3807 27.4888 57.2541C26.5148 58.1276 25.9676 59.3123 25.9676 60.5475V69.8625C25.9676 71.0977 25.4205 72.2824 24.4465 73.1559C23.4725 74.0293 22.1515 74.52 20.7741 74.52H5.19353C3.81612 74.52 2.49512 74.0293 1.52115 73.1559C0.547173 72.2824 0 71.0977 0 69.8625C0 68.6273 0.547173 67.4426 1.52115 66.5691C2.49512 65.6957 3.81612 65.205 5.19353 65.205V9.315ZM20.7741 13.9725H31.1612V23.2875H20.7741V13.9725ZM31.1612 32.6025H20.7741V41.9175H31.1612V32.6025ZM41.5482 13.9725H51.9353V23.2875H41.5482V13.9725ZM51.9353 32.6025H41.5482V41.9175H51.9353V32.6025Z" fill="#27B973"/>
<path d="M82.0524 38.44V23.8945H87.791C88.8943 23.8945 89.8341 24.1052 90.6107 24.5266C91.3872 24.9433 91.979 25.5233 92.3862 26.2667C92.7982 27.0053 93.0041 27.8576 93.0041 28.8235C93.0041 29.7894 92.7958 30.6417 92.3791 31.3803C91.9625 32.119 91.3588 32.6943 90.568 33.1062C89.7821 33.5181 88.8303 33.7241 87.7129 33.7241H84.0553V31.2596H87.2158C87.8076 31.2596 88.2953 31.1578 88.6788 30.9542C89.0671 30.7459 89.3559 30.4594 89.5453 30.0948C89.7394 29.7255 89.8365 29.3017 89.8365 28.8235C89.8365 28.3406 89.7394 27.9192 89.5453 27.5593C89.3559 27.1947 89.0671 26.913 88.6788 26.7141C88.2906 26.5106 87.7982 26.4088 87.2016 26.4088H85.1277V38.44H82.0524ZM94.4477 26.4301V23.8945H106.394V26.4301H101.941V38.44H98.9008V26.4301H94.4477ZM109.389 38.6247C108.92 38.6247 108.518 38.4589 108.182 38.1275C107.85 37.7913 107.685 37.3889 107.685 36.9201C107.685 36.4561 107.85 36.0584 108.182 35.7269C108.518 35.3955 108.92 35.2298 109.389 35.2298C109.844 35.2298 110.241 35.3955 110.582 35.7269C110.923 36.0584 111.094 36.4561 111.094 36.9201C111.094 37.2326 111.013 37.5191 110.852 37.7795C110.696 38.0352 110.49 38.2411 110.234 38.3974C109.979 38.5489 109.697 38.6247 109.389 38.6247ZM117.026 26.4301V23.8945H128.972V26.4301H124.519V38.44H121.479V26.4301H117.026ZM134.272 38.6531C133.15 38.6531 132.184 38.4258 131.374 37.9713C130.569 37.512 129.949 36.8633 129.513 36.0252C129.078 35.1824 128.86 34.1857 128.86 33.0352C128.86 31.913 129.078 30.9282 129.513 30.0806C129.949 29.2331 130.562 28.5726 131.353 28.0991C132.148 27.6256 133.081 27.3889 134.151 27.3889C134.871 27.3889 135.541 27.5049 136.161 27.7369C136.786 27.9641 137.331 28.3074 137.795 28.7667C138.263 29.226 138.628 29.8036 138.888 30.4997C139.149 31.1909 139.279 32.0006 139.279 32.9286V33.7596H130.067V31.8846H136.431C136.431 31.449 136.336 31.0631 136.147 30.7269C135.957 30.3908 135.695 30.128 135.359 29.9386C135.027 29.7445 134.641 29.6474 134.201 29.6474C133.742 29.6474 133.334 29.7539 132.979 29.967C132.629 30.1753 132.354 30.457 132.155 30.8122C131.957 31.1625 131.855 31.5532 131.85 31.984V33.7667C131.85 34.3065 131.949 34.7729 132.148 35.1659C132.352 35.5588 132.638 35.8619 133.008 36.0749C133.377 36.288 133.815 36.3945 134.322 36.3945C134.658 36.3945 134.966 36.3472 135.245 36.2525C135.524 36.1578 135.763 36.0158 135.962 35.8264C136.161 35.637 136.313 35.405 136.417 35.1303L139.215 35.315C139.073 35.9874 138.782 36.5745 138.341 37.0764C137.906 37.5735 137.342 37.9618 136.651 38.2411C135.965 38.5158 135.171 38.6531 134.272 38.6531ZM150.33 30.6417L147.56 30.8122C147.513 30.5754 147.411 30.3624 147.255 30.173C147.099 29.9788 146.893 29.8249 146.637 29.7113C146.386 29.5929 146.085 29.5338 145.735 29.5338C145.266 29.5338 144.871 29.6332 144.549 29.832C144.227 30.0262 144.066 30.2866 144.066 30.6133C144.066 30.8737 144.17 31.0939 144.378 31.2738C144.587 31.4537 144.944 31.5981 145.451 31.707L147.425 32.1048C148.486 32.3226 149.277 32.673 149.797 33.1559C150.318 33.6389 150.579 34.2733 150.579 35.0593C150.579 35.7743 150.368 36.4017 149.947 36.9414C149.53 37.4812 148.957 37.9026 148.228 38.2056C147.503 38.5039 146.668 38.6531 145.721 38.6531C144.277 38.6531 143.126 38.3524 142.269 37.7511C141.417 37.145 140.917 36.3212 140.77 35.2795L143.746 35.1232C143.836 35.5636 144.054 35.8998 144.4 36.1318C144.745 36.359 145.188 36.4727 145.728 36.4727C146.258 36.4727 146.684 36.3709 147.006 36.1673C147.333 35.9589 147.499 35.6914 147.503 35.3647C147.499 35.0901 147.383 34.8652 147.155 34.69C146.928 34.5101 146.578 34.3728 146.104 34.2781L144.215 33.9016C143.15 33.6886 142.357 33.3193 141.836 32.7937C141.32 32.2681 141.062 31.5981 141.062 30.7838C141.062 30.083 141.251 29.4793 141.63 28.9727C142.013 28.466 142.551 28.0754 143.242 27.8008C143.938 27.5262 144.752 27.3889 145.685 27.3889C147.063 27.3889 148.147 27.6801 148.938 28.2624C149.734 28.8448 150.198 29.6379 150.33 30.6417ZM158.286 27.5309V29.8036H151.717V27.5309H158.286ZM153.208 24.9173H156.234V35.0877C156.234 35.3671 156.276 35.5849 156.362 35.7411C156.447 35.8927 156.565 35.9992 156.717 36.0607C156.873 36.1223 157.053 36.1531 157.257 36.1531C157.399 36.1531 157.541 36.1412 157.683 36.1176C157.825 36.0892 157.934 36.0678 158.009 36.0536L158.485 38.3051C158.334 38.3524 158.121 38.4069 157.846 38.4684C157.571 38.5347 157.238 38.5749 156.845 38.5892C156.116 38.6176 155.476 38.5205 154.927 38.298C154.383 38.0754 153.959 37.7298 153.656 37.261C153.353 36.7923 153.204 36.2004 153.208 35.4855V24.9173ZM172.834 28.0778C172.777 27.5049 172.533 27.0598 172.102 26.7426C171.671 26.4253 171.087 26.2667 170.348 26.2667C169.846 26.2667 169.422 26.3377 169.077 26.4798C168.731 26.6171 168.466 26.8088 168.281 27.0551C168.101 27.3013 168.011 27.5806 168.011 27.8931C168.002 28.1535 168.056 28.3808 168.175 28.5749C168.298 28.7691 168.466 28.9372 168.679 29.0792C168.892 29.2165 169.138 29.3373 169.417 29.4414C169.697 29.5409 169.995 29.6261 170.312 29.6971L171.619 30.0096C172.254 30.1516 172.836 30.341 173.366 30.5778C173.897 30.8145 174.356 31.1057 174.744 31.4514C175.132 31.797 175.433 32.2042 175.646 32.673C175.864 33.1417 175.975 33.6791 175.98 34.2852C175.975 35.1753 175.748 35.9471 175.298 36.6005C174.853 37.2492 174.209 37.7534 173.366 38.1133C172.528 38.4684 171.517 38.646 170.334 38.646C169.159 38.646 168.137 38.466 167.265 38.1062C166.399 37.7463 165.722 37.2137 165.234 36.5082C164.751 35.798 164.498 34.9196 164.474 33.8732H167.45C167.483 34.3609 167.623 34.7681 167.869 35.0948C168.12 35.4168 168.454 35.6606 168.871 35.8264C169.292 35.9874 169.768 36.0678 170.298 36.0678C170.819 36.0678 171.271 35.9921 171.655 35.8406C172.043 35.6891 172.344 35.4784 172.557 35.2085C172.77 34.9386 172.876 34.6284 172.876 34.2781C172.876 33.9514 172.779 33.6767 172.585 33.4542C172.396 33.2317 172.116 33.0423 171.747 32.886C171.382 32.7298 170.935 32.5877 170.405 32.4599L168.821 32.0622C167.595 31.7639 166.626 31.2975 165.916 30.663C165.206 30.0285 164.853 29.1739 164.858 28.0991C164.853 27.2184 165.087 26.449 165.561 25.7909C166.039 25.1327 166.695 24.619 167.528 24.2497C168.362 23.8803 169.309 23.6957 170.369 23.6957C171.449 23.6957 172.391 23.8803 173.196 24.2497C174.006 24.619 174.635 25.1327 175.085 25.7909C175.535 26.449 175.767 27.2113 175.781 28.0778H172.834ZM179.86 42.5309C179.476 42.5309 179.116 42.5001 178.78 42.4386C178.449 42.3818 178.174 42.3084 177.956 42.2184L178.638 39.9599C178.993 40.0688 179.313 40.128 179.597 40.1374C179.886 40.1469 180.134 40.0806 180.343 39.9386C180.556 39.7965 180.728 39.5551 180.861 39.2142L181.039 38.7525L177.125 27.5309H180.307L182.566 35.5423H182.679L184.959 27.5309H188.162L183.922 39.619C183.718 40.2061 183.441 40.7175 183.091 41.1531C182.745 41.5934 182.308 41.932 181.777 42.1687C181.247 42.4102 180.608 42.5309 179.86 42.5309ZM192.528 38.646C191.832 38.646 191.212 38.5252 190.667 38.2838C190.123 38.0375 189.692 37.6753 189.375 37.1971C189.062 36.7142 188.906 36.1128 188.906 35.3931C188.906 34.7871 189.017 34.2781 189.24 33.8661C189.462 33.4542 189.765 33.1228 190.149 32.8718C190.533 32.6209 190.968 32.4315 191.456 32.3036C191.948 32.1758 192.464 32.0858 193.004 32.0338C193.639 31.9675 194.15 31.9059 194.538 31.8491C194.926 31.7875 195.208 31.6976 195.383 31.5792C195.559 31.4608 195.646 31.2856 195.646 31.0536V31.011C195.646 30.5612 195.504 30.2132 195.22 29.967C194.941 29.7208 194.543 29.5977 194.027 29.5977C193.482 29.5977 193.049 29.7184 192.727 29.9599C192.405 30.1966 192.192 30.4949 192.088 30.8548L189.29 30.6275C189.432 29.9646 189.711 29.3917 190.128 28.9088C190.544 28.4211 191.082 28.047 191.74 27.7866C192.403 27.5214 193.17 27.3889 194.041 27.3889C194.647 27.3889 195.227 27.4599 195.781 27.6019C196.34 27.744 196.835 27.9641 197.265 28.2624C197.701 28.5607 198.044 28.9443 198.295 29.413C198.546 29.877 198.672 30.4334 198.672 31.082V38.44H195.802V36.9272H195.717C195.542 37.2681 195.308 37.5688 195.014 37.8292C194.72 38.0849 194.368 38.2861 193.956 38.4329C193.544 38.5749 193.068 38.646 192.528 38.646ZM193.395 36.5579C193.84 36.5579 194.233 36.4703 194.574 36.2951C194.915 36.1152 195.182 35.8737 195.376 35.5707C195.57 35.2677 195.667 34.9244 195.667 34.5409V33.3832C195.573 33.4447 195.443 33.5016 195.277 33.5536C195.116 33.601 194.934 33.646 194.73 33.6886C194.526 33.7265 194.323 33.762 194.119 33.7951C193.916 33.8235 193.731 33.8496 193.565 33.8732C193.21 33.9253 192.9 34.0082 192.635 34.1218C192.37 34.2355 192.164 34.3893 192.017 34.5835C191.87 34.7729 191.797 35.0096 191.797 35.2937C191.797 35.7056 191.946 36.0205 192.244 36.2383C192.547 36.4514 192.931 36.5579 193.395 36.5579ZM201.019 38.44V27.5309H203.952V29.4343H204.066C204.265 28.7572 204.599 28.2459 205.067 27.9002C205.536 27.5499 206.076 27.3747 206.687 27.3747C206.838 27.3747 207.002 27.3841 207.177 27.4031C207.352 27.422 207.506 27.4481 207.638 27.4812V30.1659C207.496 30.1232 207.3 30.0854 207.049 30.0522C206.798 30.0191 206.568 30.0025 206.36 30.0025C205.915 30.0025 205.517 30.0996 205.167 30.2937C204.821 30.4831 204.546 30.7482 204.343 31.0891C204.144 31.4301 204.045 31.8231 204.045 32.2681V38.44H201.019ZM209.203 38.44V27.5309H212.228V38.44H209.203ZM210.723 26.1247C210.273 26.1247 209.887 25.9755 209.565 25.6772C209.248 25.3742 209.089 25.012 209.089 24.5906C209.089 24.1739 209.248 23.8164 209.565 23.5181C209.887 23.2151 210.273 23.0636 210.723 23.0636C211.172 23.0636 211.556 23.2151 211.873 23.5181C212.195 23.8164 212.356 24.1739 212.356 24.5906C212.356 25.012 212.195 25.3742 211.873 25.6772C211.556 25.9755 211.172 26.1247 210.723 26.1247ZM220.518 27.5309V29.8036H213.785V27.5309H220.518ZM215.327 38.44V26.7426C215.327 25.9518 215.48 25.2961 215.788 24.7752C216.101 24.2544 216.527 23.8638 217.067 23.6034C217.606 23.3429 218.22 23.2127 218.906 23.2127C219.37 23.2127 219.794 23.2482 220.177 23.3193C220.566 23.3903 220.854 23.4542 221.044 23.511L220.504 25.7838C220.386 25.7459 220.239 25.7104 220.064 25.6772C219.893 25.6441 219.718 25.6275 219.538 25.6275C219.093 25.6275 218.783 25.7317 218.608 25.94C218.433 26.1436 218.345 26.4301 218.345 26.7994V38.44H215.327ZM227.052 23.8945H230.845L234.851 33.6673H235.021L239.027 23.8945H242.819V38.44H239.837V28.9727H239.716L235.952 38.369H233.92L230.156 28.9372H230.035V38.44H227.052V23.8945ZM250.268 38.6531C249.146 38.6531 248.18 38.4258 247.37 37.9713C246.565 37.512 245.945 36.8633 245.509 36.0252C245.074 35.1824 244.856 34.1857 244.856 33.0352C244.856 31.913 245.074 30.9282 245.509 30.0806C245.945 29.2331 246.558 28.5726 247.349 28.0991C248.144 27.6256 249.077 27.3889 250.147 27.3889C250.867 27.3889 251.537 27.5049 252.157 27.7369C252.782 27.9641 253.327 28.3074 253.791 28.7667C254.259 29.226 254.624 29.8036 254.884 30.4997C255.145 31.1909 255.275 32.0006 255.275 32.9286V33.7596H246.063V31.8846H252.427C252.427 31.449 252.332 31.0631 252.143 30.7269C251.954 30.3908 251.691 30.128 251.355 29.9386C251.023 29.7445 250.637 29.6474 250.197 29.6474C249.738 29.6474 249.33 29.7539 248.975 29.967C248.625 30.1753 248.35 30.457 248.151 30.8122C247.953 31.1625 247.851 31.5532 247.846 31.984V33.7667C247.846 34.3065 247.946 34.7729 248.144 35.1659C248.348 35.5588 248.634 35.8619 249.004 36.0749C249.373 36.288 249.811 36.3945 250.318 36.3945C250.654 36.3945 250.962 36.3472 251.241 36.2525C251.52 36.1578 251.759 36.0158 251.958 35.8264C252.157 35.637 252.309 35.405 252.413 35.1303L255.211 35.315C255.069 35.9874 254.778 36.5745 254.338 37.0764C253.902 37.5735 253.339 37.9618 252.647 38.2411C251.961 38.5158 251.168 38.6531 250.268 38.6531ZM257.25 38.44V27.5309H260.183V29.4343H260.296C260.495 28.7572 260.829 28.2459 261.298 27.9002C261.767 27.5499 262.306 27.3747 262.917 27.3747C263.069 27.3747 263.232 27.3841 263.407 27.4031C263.582 27.422 263.736 27.4481 263.869 27.4812V30.1659C263.727 30.1232 263.53 30.0854 263.279 30.0522C263.028 30.0191 262.799 30.0025 262.59 30.0025C262.145 30.0025 261.748 30.0996 261.397 30.2937C261.052 30.4831 260.777 30.7482 260.573 31.0891C260.375 31.4301 260.275 31.8231 260.275 32.2681V38.44H257.25ZM268.175 35.3008L268.182 31.6715H268.622L272.116 27.5309H275.589L270.895 33.0139H270.177L268.175 35.3008ZM265.433 38.44V23.8945H268.459V38.44H265.433ZM272.251 38.44L269.041 33.6886L271.058 31.5508L275.795 38.44H272.251ZM280.099 23.8945V38.44H277.074V23.8945H280.099ZM287.495 38.6531C286.372 38.6531 285.406 38.4258 284.597 37.9713C283.792 37.512 283.172 36.8633 282.736 36.0252C282.3 35.1824 282.083 34.1857 282.083 33.0352C282.083 31.913 282.3 30.9282 282.736 30.0806C283.172 29.2331 283.785 28.5726 284.575 28.0991C285.371 27.6256 286.304 27.3889 287.374 27.3889C288.093 27.3889 288.763 27.5049 289.384 27.7369C290.009 27.9641 290.553 28.3074 291.017 28.7667C291.486 29.226 291.851 29.8036 292.111 30.4997C292.371 31.1909 292.502 32.0006 292.502 32.9286V33.7596H283.29V31.8846H289.654C289.654 31.449 289.559 31.0631 289.37 30.7269C289.18 30.3908 288.917 30.128 288.581 29.9386C288.25 29.7445 287.864 29.6474 287.424 29.6474C286.964 29.6474 286.557 29.7539 286.202 29.967C285.852 30.1753 285.577 30.457 285.378 30.8122C285.179 31.1625 285.077 31.5532 285.073 31.984V33.7667C285.073 34.3065 285.172 34.7729 285.371 35.1659C285.575 35.5588 285.861 35.8619 286.23 36.0749C286.6 36.288 287.038 36.3945 287.544 36.3945C287.88 36.3945 288.188 36.3472 288.468 36.2525C288.747 36.1578 288.986 36.0158 289.185 35.8264C289.384 35.637 289.535 35.405 289.639 35.1303L292.438 35.315C292.296 35.9874 292.004 36.5745 291.564 37.0764C291.129 37.5735 290.565 37.9618 289.874 38.2411C289.187 38.5158 288.394 38.6531 287.495 38.6531Z" fill="black"/>
</svg>
