<svg width="244" height="245" viewBox="0 0 244 245" fill="none" xmlns="http://www.w3.org/2000/svg">
<path d="M11 139.098C15.9085 131.178 24.9202 120.948 33.0413 126.707C41.1625 132.463 45.1254 161.418 35.4895 164.443C26.4635 167.268 29.2858 139.799 42.3032 131.363C55.3206 122.927 64.8935 143.37 57.6182 144.431C52.909 145.123 50.2738 133.079 64.8488 126.623" stroke="white" stroke-width="0.8" stroke-linecap="round" stroke-linejoin="round"/>
<path d="M159.738 124.031L195.555 144.757" stroke="white" stroke-width="0.8" stroke-linecap="round" stroke-linejoin="round"/>
<path d="M192.24 118.469L233.334 130.205" stroke="white" stroke-width="0.8" stroke-linecap="round" stroke-linejoin="round"/>
<path d="M45.7441 31.75V34.4482" stroke="#D53043" stroke-width="0.8" stroke-linecap="round" stroke-linejoin="round"/>
<path d="M45.7441 42.1016V44.7978" stroke="#D53043" stroke-width="0.8" stroke-linecap="round" stroke-linejoin="round"/>
<path d="M52.2685 38.2734H49.5703" stroke="#D53043" stroke-width="0.8" stroke-linecap="round" stroke-linejoin="round"/>
<path d="M41.915 38.2734H39.2188" stroke="#D53043" stroke-width="0.8" stroke-linecap="round" stroke-linejoin="round"/>
<path d="M41.1328 33.6641L43.0319 35.5632" stroke="#D53043" stroke-width="0.8" stroke-linecap="round" stroke-linejoin="round"/>
<path d="M48.4551 40.9844L50.3542 42.8835" stroke="#D53043" stroke-width="0.8" stroke-linecap="round" stroke-linejoin="round"/>
<path d="M50.3542 33.6641L48.4551 35.5632" stroke="#D53043" stroke-width="0.8" stroke-linecap="round" stroke-linejoin="round"/>
<path d="M43.0319 40.9844L41.1328 42.8835" stroke="#D53043" stroke-width="0.8" stroke-linecap="round" stroke-linejoin="round"/>
<path d="M213.711 117.5V120.692" stroke="#D53043" stroke-width="0.8" stroke-linecap="round" stroke-linejoin="round"/>
<path d="M213.711 129.758V132.95" stroke="#D53043" stroke-width="0.8" stroke-linecap="round" stroke-linejoin="round"/>
<path d="M221.436 125.227H218.244" stroke="#D53043" stroke-width="0.8" stroke-linecap="round" stroke-linejoin="round"/>
<path d="M209.181 125.227H205.988" stroke="#D53043" stroke-width="0.8" stroke-linecap="round" stroke-linejoin="round"/>
<path d="M208.254 119.766L210.503 122.012" stroke="#D53043" stroke-width="0.8" stroke-linecap="round" stroke-linejoin="round"/>
<path d="M216.922 128.43L219.169 130.679" stroke="#D53043" stroke-width="0.8" stroke-linecap="round" stroke-linejoin="round"/>
<path d="M219.169 119.766L216.922 122.012" stroke="#D53043" stroke-width="0.8" stroke-linecap="round" stroke-linejoin="round"/>
<path d="M210.503 128.43L208.254 130.679" stroke="#D53043" stroke-width="0.8" stroke-linecap="round" stroke-linejoin="round"/>
<path d="M138.088 177.5V180.229" stroke="#D53043" stroke-width="0.8" stroke-linecap="round" stroke-linejoin="round"/>
<path d="M138.088 187.977V190.707" stroke="#D53043" stroke-width="0.8" stroke-linecap="round" stroke-linejoin="round"/>
<path d="M144.696 184.102H141.965" stroke="#D53043" stroke-width="0.8" stroke-linecap="round" stroke-linejoin="round"/>
<path d="M134.215 184.102H131.484" stroke="#D53043" stroke-width="0.8" stroke-linecap="round" stroke-linejoin="round"/>
<path d="M133.422 179.438L135.343 181.361" stroke="#D53043" stroke-width="0.8" stroke-linecap="round" stroke-linejoin="round"/>
<path d="M140.834 186.852L142.758 188.775" stroke="#D53043" stroke-width="0.8" stroke-linecap="round" stroke-linejoin="round"/>
<path d="M142.758 179.438L140.834 181.361" stroke="#D53043" stroke-width="0.8" stroke-linecap="round" stroke-linejoin="round"/>
<path d="M135.343 186.852L133.422 188.775" stroke="#D53043" stroke-width="0.8" stroke-linecap="round" stroke-linejoin="round"/>
<path d="M43.8728 140.711C53.2323 138.872 59.3262 129.8 57.488 120.442C55.6499 111.083 46.5772 104.989 37.2177 106.827C27.8583 108.665 21.7644 117.738 23.6025 127.097C25.4407 136.455 34.5154 142.549 43.8728 140.711Z" fill="#D53043"/>
<path d="M115.71 205.474C118.614 197.927 114.852 189.456 107.304 186.552C99.7564 183.647 91.2876 187.408 88.382 194.956C85.4763 202.504 89.24 210.975 96.7878 213.878C104.336 216.784 112.804 213.022 115.71 205.474Z" fill="#F5F5F5"/>
<path d="M177.861 74.0745C176.712 81.5246 181.819 88.4989 189.272 89.6478C196.724 90.7966 203.698 85.6868 204.847 78.2347C205.996 70.7825 200.886 63.8102 193.434 62.6614C185.982 61.5125 179.009 66.6203 177.861 74.0745Z" fill="#F5F5F5"/>
<path d="M165.374 110.992C164.522 116.515 168.31 121.684 173.832 122.536C179.357 123.388 184.524 119.6 185.375 114.077C186.227 108.552 182.441 103.386 176.917 102.534C171.394 101.682 166.226 105.468 165.374 110.992Z" fill="#D53043"/>
<path d="M71.5851 36.2917L88.7322 34.1079C91.8005 33.7175 94.6065 35.8891 95.0091 38.9655L96.4527 50.2952C96.8431 53.3717 94.6715 56.1777 91.5951 56.5701L81.6541 57.8369L76.7172 62.2187C76.6318 62.296 76.5261 62.3468 76.4142 62.361C76.097 62.4017 75.8124 62.1821 75.7717 61.8649L75.361 58.638L74.448 58.7539C71.3695 59.1463 68.5635 56.9747 68.1711 53.8983L66.7274 42.5686C66.335 39.4921 68.5086 36.6841 71.5851 36.2917Z" fill="#D53043"/>
<path opacity="0.2" d="M81.6545 57.8359L80.8798 58.5212L75.5647 60.2414L75.3613 58.6371L81.6545 57.8359Z" fill="#1F1F1F"/>
<path d="M79.1154 46.7439L77.2549 45.3023C76.4863 44.7086 76.346 43.5983 76.9398 42.8318C77.5335 42.0652 78.6437 41.9229 79.4103 42.5166L81.2708 43.9562L82.7104 42.0957C83.3041 41.3291 84.4143 41.1868 85.1829 41.7826C85.9495 42.3763 86.0898 43.4845 85.496 44.2531L84.0564 46.1136L85.9068 47.5451C86.6733 48.1388 86.8157 49.249 86.2219 50.0156C85.6282 50.7842 84.518 50.9244 83.7514 50.3307L81.9011 48.8992L80.4676 50.7496C79.8739 51.5161 78.7657 51.6585 77.9971 51.0648C77.2305 50.471 77.0882 49.3608 77.6819 48.5922L79.1154 46.7439Z" fill="white"/>
<path d="M174.483 56.6521L174.491 56.6318L183.641 38.0858C183.997 37.3538 184.019 36.6035 183.708 35.9752C183.407 35.3855 182.842 34.9809 182.116 34.8365L155.693 29.56C154.127 29.2469 152.271 30.1903 151.557 31.6625L142.383 50.241L174.483 56.6521Z" fill="#1F1F1F"/>
<path d="M172.338 56.2095L181.114 38.4362L153.298 32.875L144.504 50.6524L172.338 56.2095Z" fill="#D53043"/>
<path opacity="0.15" d="M155.366 50.281C155.476 50.3034 155.61 50.279 155.718 50.2221L158.579 48.7682L165.405 50.1326C166.31 50.3136 167.379 49.7686 167.79 48.9167L170.167 44.0895C170.395 43.6747 170.421 43.2457 170.246 42.8817C170.075 42.5198 169.748 42.2819 169.305 42.1924L161.393 40.6125C160.49 40.4336 159.423 40.9704 159.012 41.8122L155.102 49.7239C155.045 49.8439 155.039 49.9557 155.088 50.0472C155.153 50.1855 155.238 50.2546 155.366 50.281Z" fill="#1F1F1F"/>
<path d="M154.997 48.9057C155.105 48.926 155.241 48.9036 155.349 48.8447L158.21 47.3929L165.036 48.7572C165.939 48.9362 167.006 48.3973 167.417 47.5576L169.796 42.7305C170.022 42.3136 170.05 41.8846 169.875 41.5206C169.702 41.1587 169.375 40.9208 168.932 40.8333L161.02 39.2534C160.117 39.0725 159.048 39.6174 158.637 40.4673L154.727 48.3791C154.67 48.499 154.664 48.6108 154.713 48.7023C154.792 48.8203 154.875 48.8813 154.997 48.9057Z" fill="#E0E0E0"/>
<path d="M161.439 44.5687C161.677 44.6175 161.945 44.5687 162.159 44.4386C162.37 44.3227 162.541 44.1336 162.614 43.9323C162.704 43.7269 162.697 43.5134 162.602 43.3487C162.527 43.2003 162.366 43.0905 162.159 43.0498C161.921 43.001 161.652 43.0498 161.439 43.1799C161.227 43.2958 161.057 43.4849 160.983 43.6862C160.894 43.8916 160.9 44.1051 160.996 44.2698C161.071 44.4182 161.231 44.528 161.439 44.5687Z" fill="#1F1F1F"/>
<path d="M164.283 45.1164C164.521 45.1632 164.79 45.1144 165.005 44.9863C165.253 44.844 165.438 44.6142 165.503 44.3722C165.548 44.1974 165.528 44.0327 165.446 43.8944C165.373 43.746 165.212 43.6382 165.005 43.5955C164.767 43.5487 164.499 43.5975 164.285 43.7277C164.074 43.8415 163.903 44.0306 163.83 44.2319C163.74 44.4373 163.744 44.6508 163.842 44.8175C163.917 44.97 164.07 45.0737 164.283 45.1164Z" fill="#1F1F1F"/>
<path d="M154.41 55.1849L154.414 55.1483C153.773 55.0182 153.288 54.6644 153.037 54.1479C152.777 53.6192 152.804 52.9767 153.111 52.3362L153.135 52.2935L125.329 46.7344L125.325 46.7547C125.002 47.4013 124.973 48.0581 125.248 48.605C125.512 49.1459 126.023 49.518 126.681 49.6481L154.41 55.1849Z" fill="#1F1F1F"/>
<path d="M170.807 58.485C172.189 58.7615 173.847 57.9217 174.493 56.6143L174.52 56.5716L153.064 52.2812L153.06 52.3016C152.737 52.9482 152.708 53.605 152.981 54.1519C153.251 54.7009 153.741 55.0608 154.4 55.193L170.801 58.485H170.807Z" fill="#1F1F1F"/>
<path d="M119.205 166.334C119.189 166.334 119.189 166.334 119.205 166.334C118.217 164.321 117.265 161.769 116.6 159.091C116.222 157.528 115.97 155.533 115.701 153.754C115.701 153.736 115.683 153.754 115.701 153.754L133.351 150.141C133.369 150.141 133.369 150.141 133.369 150.159C133.908 155.838 137.359 158.067 140.396 160.027C143.343 161.572 144.315 164.592 144.062 166.318C144.062 166.318 144.062 166.334 144.044 166.334C143.217 166.334 119.762 166.334 119.205 166.334Z" fill="#FFC99C"/>
<path d="M118.147 164.001C117.553 162.6 117.014 160.821 116.602 159.132C116.602 159.113 116.602 159.113 116.62 159.113L131.016 161.324C131.034 161.324 131.034 161.307 131.034 161.307L129.487 157.513C128.68 155.573 130.207 153.29 132.309 153.345C132.309 153.345 133.909 153.345 134.052 153.345C134.052 153.345 134.07 153.345 134.07 153.363C135.347 156.866 138.061 158.574 140.432 160.101C140.631 160.209 140.792 160.335 140.955 160.443C142.356 161.234 143.578 163.068 143.793 164.02C143.793 164.038 143.793 164.038 143.775 164.038C143.128 164.056 132.238 164.847 124.869 164.847C121.077 164.811 118.291 164.056 118.147 164.001Z" fill="#D53043"/>
<path d="M119.15 166.32C118.809 165.619 118.485 164.846 118.162 164.018C118.162 164 118.162 164 118.18 164H143.774C143.774 164 143.79 164 143.79 164.018C144.061 164.649 144.097 166.031 144.042 166.336C144.042 166.336 144.042 166.355 144.024 166.355C143.199 166.336 119.726 166.336 119.15 166.32C119.15 166.336 119.15 166.336 119.15 166.32Z" fill="#A21727"/>
<path d="M127.852 159.072C127.421 157.24 127.08 155.335 126.846 153.501C126.846 153.485 126.846 153.485 126.864 153.485L141.728 149.638L144.495 149.367C144.513 149.367 144.513 149.367 144.513 149.385C144.566 150.823 144.818 152.082 145.249 153.304C145.249 153.304 145.249 153.304 145.249 153.322L143.11 163.495C143.11 163.513 143.094 163.513 143.094 163.513L127.852 159.072C127.852 159.091 127.852 159.091 127.852 159.072Z" fill="#FFC99C"/>
<path d="M87.6465 133.392V133.376C87.8437 133.069 92.3191 126.725 97.8559 119.913C107.272 108.248 112.486 104.061 115.198 102.606C122.262 98.6345 131.068 101.384 134.466 109.076C137.969 116.715 134.429 135.946 133.386 146.908C133.297 148.006 133.297 149.084 133.386 150.161C133.386 150.161 133.386 150.179 133.37 150.179L115.792 154.295C115.774 154.295 115.774 154.295 115.774 154.277C115.288 150.989 115.038 147.646 115.019 144.338C115.019 144.321 115.001 144.321 114.983 144.338C113.275 149.047 110.094 154.277 107.112 157.603C107.112 157.603 107.093 157.603 107.075 157.603C106.428 156.739 88.0776 133.915 87.6465 133.392Z" fill="#1F1F1F"/>
<path opacity="0.3" d="M115.79 154.237C115.304 150.947 115.036 147.604 115.036 144.261C115.036 144.243 114.999 144.243 114.999 144.261C114.784 144.818 114.605 145.268 114.568 144.873C114.747 142.212 119.853 124.42 125.351 124.707C134.914 125.119 133.745 141.349 133.44 146.886C133.35 147.982 133.35 149.06 133.44 150.137C133.44 150.137 133.44 150.156 133.421 150.156L126.61 151.756L115.809 154.255C115.79 154.255 115.79 154.255 115.79 154.237Z" fill="#1F1F1F"/>
<path d="M93.9368 166.336C85.0938 166.588 76.9341 160.73 73.8597 152.66C73.1765 150.844 74.0589 145.722 74.0935 145.544C74.0406 145.417 72.4953 142.038 72.7637 139.594C73.087 136.646 73.7519 133.592 74.7238 130.464C74.7238 130.464 74.7238 130.446 74.7401 130.446L86.4419 129.871L98.7883 133.376H98.8066C99.256 132.764 117.013 107.601 126.358 102.606C133.422 98.6345 142.228 101.384 145.626 109.076C149.49 117.577 144.888 137.725 144.494 149.354C144.494 149.354 144.494 149.37 144.475 149.37C144.207 149.443 139.372 150.558 134.841 151.617C130.889 152.534 127.131 153.415 126.844 153.488C126.826 153.488 126.826 153.488 126.826 153.469C126.395 150.45 126.179 147.341 126.179 144.303C126.179 144.285 126.161 144.285 126.143 144.303C120.14 159.364 110.74 167.487 93.9368 166.336Z" fill="#1F1F1F"/>
<path d="M129.341 163.98C128.766 162.451 128.245 160.798 127.867 159.108C127.867 159.09 127.867 159.09 127.885 159.09L142.192 161.302C142.21 161.302 142.21 161.284 142.21 161.284L140.663 157.492C139.856 155.55 141.383 153.266 143.485 153.321C143.485 153.321 145.104 153.321 145.246 153.321C145.246 153.321 145.264 153.321 145.264 153.34C146.541 156.843 149.902 158.551 152.292 160.078C152.491 160.186 152.651 160.312 152.814 160.42C154.215 161.211 155.419 163.063 155.618 163.996C155.618 164.015 155.618 164.015 155.6 164.015C155.169 164.033 151.393 164.968 144.024 164.968C139.225 164.968 129.701 164.051 129.341 163.98C129.341 163.996 129.341 163.996 129.341 163.98Z" fill="#D53043"/>
<path d="M130.331 166.32C129.99 165.619 129.685 164.846 129.359 164.018C129.359 164 129.359 164 129.378 164L155.602 164.018C155.602 164.018 155.618 164.018 155.618 164.037C155.888 164.701 155.925 166.086 155.852 166.336C155.852 166.336 155.852 166.355 155.833 166.355C155.026 166.336 130.907 166.336 130.331 166.32C130.331 166.336 130.331 166.336 130.331 166.32Z" fill="#A21727"/>
<path d="M126.178 144.191C130.33 133.945 135.381 115.578 135.381 115.578" stroke="#1F1F1F" stroke-width="0.8" stroke-linecap="round" stroke-linejoin="round"/>
<path opacity="0.3" d="M126.843 153.468C126.412 150.412 126.196 147.267 126.178 144.194C126.249 143.995 130.564 134.003 135.344 115.6C135.344 115.581 135.362 115.581 135.381 115.6C137.302 117.324 136.098 123.885 135.667 127.694C135.074 132.44 134.285 138.965 134.858 151.598C134.858 151.598 134.858 151.616 134.842 151.616C134.482 151.706 127.274 153.361 126.843 153.468Z" fill="#1F1F1F"/>
<path d="M129.053 121.059C129.053 121.041 129.053 121.041 129.053 121.059C134.876 118.956 138.687 117.769 144.276 117.734C145.84 117.734 147.133 117.858 147.782 118.074C149.219 118.56 149.219 120.052 148.339 120.61C148.321 120.61 148.321 120.628 148.339 120.628C148.985 121.201 149.669 122.623 148.14 123.485C148.14 123.485 148.123 123.503 148.14 123.503C148.554 124.347 148.607 125.821 146.883 126.199C146.883 126.199 145.338 126.449 144.87 126.541C144.852 126.541 144.852 126.575 144.87 126.575C145.517 126.667 148.213 127.224 147.637 128.535C147.278 129.398 143.306 129.613 143.144 129.613C143.054 129.686 140.897 131.087 138.04 131.087C137.591 131.087 136.944 131.032 136.566 130.961C136.566 130.961 136.566 130.961 136.548 130.961C136.476 130.998 135.883 131.447 134.842 132.273C134.392 132.614 133.168 133.603 132.774 133.928C132.755 133.928 132.755 133.928 132.755 133.928C132.577 133.531 129.394 127.871 129.323 127.744L129.053 121.059Z" fill="#FFC99C"/>
<path d="M97.8559 84.7228L103.624 78.757C106.247 75.5932 110.581 72.4659 116.349 71.2967C121.237 70.0564 124.33 72.897 125.552 74.5684C126.737 76.2032 127.707 82.6387 127.744 82.8359C127.689 82.962 126.27 85.892 125.552 87.293V87.3113C126.467 88.3706 126.54 89.8448 124.275 89.6659C124.275 89.6659 124.257 89.6659 124.257 89.6842C122.317 95.2555 118.273 96.1888 114.499 93.2791H114.48C114.391 93.3869 113.742 94.1758 113.258 94.7695C113.185 94.8427 113.132 94.9322 113.077 94.9851C112.88 95.2189 112.736 95.3999 112.701 95.4527H112.683L97.8722 84.7411C97.8376 84.7411 97.8376 84.7411 97.8559 84.7228Z" fill="#FFC99C"/>
<path d="M114.803 141.963C112.251 141.963 108.548 140.741 105.492 134.936C103.768 131.664 102.995 128.34 102.904 127.943C102.904 127.925 102.886 127.925 102.869 127.943L98.9511 133.496H98.9328L74.7585 130.442C74.7402 130.442 74.7402 130.424 74.7402 130.424C75.155 129.183 76.8976 123.576 78.8028 117.321C81.0314 110.007 83.4754 101.829 84.2481 98.8278C84.4474 98.6123 97.4221 85.1862 97.8186 84.7734H97.8369C98.2862 85.0784 112.52 94.568 113.058 94.9808C113.058 94.9808 113.077 94.9991 113.058 94.9991C112.916 95.1963 111.855 96.7416 111.729 96.9226C111.729 96.9409 111.729 96.9409 111.729 96.9409C114.03 97.8742 118.648 101.325 119.097 105.406C119.962 110.959 120.338 123.954 120.356 124.637C120.356 124.655 120.374 124.655 120.374 124.655C120.572 124.564 121.867 123.972 123.717 123.181C125.21 122.551 127.06 121.778 129.002 121.042C129.02 121.042 129.02 121.042 129.02 121.06L132.704 133.946V133.964C123.772 140.434 118.703 141.747 114.803 141.963Z" fill="white"/>
<path d="M130.8 74.3502C129.901 74.1347 128.858 74.1347 127.725 74.4031H127.707C126.79 72.6077 123.358 69.3889 118.882 69.031C119.584 68.4902 120.159 67.6646 120.59 66.6032C120.661 66.4426 120.735 66.2616 120.788 66.0827C122.441 61.3023 119.171 52.6037 114.12 53.4659C110.796 54.2934 109.824 58.4435 110.525 62.3617C111.082 65.489 112.717 68.4556 115.072 69.4438C110.328 70.918 106.176 75.554 104.055 78.1607C103.876 78.3579 103.732 78.5552 103.606 78.7178H103.588C103.283 78.5023 97.8556 74.5841 91.3835 74.6024C90.5946 74.6024 89.8199 74.6552 89.0655 74.7447C83.1526 75.5723 79.0737 79.5434 78.0489 83.0305C76.8086 86.355 77.1319 89.4823 77.1502 89.7161C77.1502 89.7161 77.1502 89.7344 77.1319 89.7344C76.9529 89.7893 74.9582 90.381 72.9615 92.1602C71.2189 93.6893 70.123 95.5213 69.4581 97.3553C68.7932 99.1894 68.541 101.021 68.5044 102.532C68.0022 110.529 74.4011 115.922 78.8399 117.288C78.8582 117.288 78.8582 117.288 78.8582 117.27C78.9476 117.054 79.9724 114.429 80.9606 112.022C81.4446 110.853 81.9122 109.72 82.2355 108.966L82.2538 108.947C89.7487 109.936 96.2188 107.331 99.7588 103.718C102.42 101.076 104.145 97.1215 104.486 94.8747C104.486 94.8747 104.486 94.8564 104.505 94.8564C112.609 93.4188 112.772 85.0984 112.683 84.7568C111.694 83.6954 110.993 81.3246 111.442 79.6166C111.784 77.872 113.167 76.5605 114.856 76.5971C117.607 76.5422 119.242 79.9765 119.008 81.8268V81.8451C119.153 81.9529 123.323 83.301 126.719 83.3193C129.578 83.3193 134.088 81.8817 134.051 78.1607C133.909 76.1843 132.668 74.7813 130.8 74.3502Z" fill="#444444"/>
<path opacity="0.3" d="M116.67 69.8009C113.706 69.8009 111.243 66.4744 110.523 62.4321C110.523 62.4138 110.542 62.3955 110.56 62.4138C111.262 63.1865 111.998 63.9043 112.86 64.4614C115.34 66.0433 118.126 66.7997 120.769 66.0799C120.786 66.0799 120.786 66.0982 120.786 66.0982C119.978 68.2902 118.647 69.8009 116.67 69.8009Z" fill="#828282"/>
<path opacity="0.3" d="M77.8511 106.938C79.431 108.16 81.3362 108.753 82.182 108.969C82.2003 108.969 82.2004 108.987 82.2004 108.987C81.7856 109.939 81.4988 110.622 80.9234 112.025C80.9234 112.043 80.9051 112.043 80.8868 112.043C78.8738 110.748 77.8856 107.369 77.8145 106.956C77.8145 106.937 77.8328 106.938 77.8511 106.938Z" fill="#828282"/>
<path d="M73.8602 152.66C72.262 148.579 72.3515 143.78 72.7643 139.612C72.7643 139.594 72.7826 139.594 72.7826 139.594C73.177 139.647 80.4035 140.637 80.798 140.69C80.8163 140.69 80.8163 140.708 80.8163 140.708L79.4153 147.825C78.4983 153.217 73.8968 152.66 73.8968 152.66H73.8602Z" fill="#1F1F1F"/>
<path opacity="0.3" d="M93.4505 141.23C94.457 136.594 93.1638 132.98 93.0723 132.765V132.747C99.4712 126.51 100.927 118.477 101.124 117.2C101.124 117.183 101.161 117.183 101.161 117.2C101.395 121.567 102.832 127.661 102.885 127.911V127.93L93.4871 141.248C93.4688 141.266 93.4505 141.248 93.4505 141.23Z" fill="#E0E0E0"/>
<path d="M98.9304 133.5C96.2891 137.113 93.4668 141.247 93.4668 141.247" stroke="#1F1F1F" stroke-width="0.8" stroke-linecap="round" stroke-linejoin="round"/>
<path d="M114.496 80.1016L115.395 82.4399" stroke="#1F1F1F" stroke-width="0.8" stroke-linecap="round" stroke-linejoin="round"/>
<path d="M122.316 89.5706C121.741 89.229 121.076 89.1924 120.445 89.3713" stroke="#1F1F1F" stroke-width="0.8" stroke-linecap="round" stroke-linejoin="round"/>
<path d="M123.501 85.1875C124.256 85.2058 124.256 86.3201 123.501 86.3384C122.747 86.3201 122.747 85.2058 123.501 85.1875Z" fill="#1F1F1F"/>
<path d="M113.312 97.7657C112.413 97.2086 111.748 96.9219 111.748 96.9219" stroke="#E0E0E0" stroke-width="0.8" stroke-linecap="round" stroke-linejoin="round"/>
<path d="M148.341 120.648C145.805 120.648 142.768 121.027 142.768 121.027" stroke="#1F1F1F" stroke-width="0.8" stroke-linecap="round" stroke-linejoin="round"/>
<path d="M148.141 123.508C146.525 123.508 143.127 123.849 143.127 123.849" stroke="#1F1F1F" stroke-width="0.8" stroke-linecap="round" stroke-linejoin="round"/>
<path d="M144.852 126.562C144.24 126.579 143.756 126.652 143.162 126.778" stroke="#1F1F1F" stroke-width="0.8" stroke-linecap="round" stroke-linejoin="round"/>
<path d="M120.393 124.656L120.445 129.022" stroke="#E0E0E0" stroke-width="0.8" stroke-linecap="round" stroke-linejoin="round"/>
<path d="M82.1826 108.984C79.8646 108.356 77.8516 106.953 77.8516 106.953" stroke="#1F1F1F" stroke-width="0.8" stroke-linecap="round" stroke-linejoin="round"/>
<path opacity="0.3" d="M120.393 124.675C120.519 124.603 121.867 124.01 123.699 123.219C123.717 123.219 123.735 123.237 123.717 123.237L120.482 129.042C120.482 129.061 120.445 129.061 120.445 129.042L120.393 124.675C120.374 124.675 120.374 124.675 120.393 124.675Z" fill="#E0E0E0"/>
<path opacity="0.3" d="M112.394 91.0311C112.988 92.0904 114.354 93.1335 114.498 93.2413V93.2596L113.293 94.7317C113.274 94.75 113.258 94.7317 113.258 94.7317L112.359 91.0473C112.359 91.0311 112.378 91.0128 112.394 91.0311Z" fill="#1F1F1F"/>
<path opacity="0.3" d="M69.4395 97.3395C71.6863 91.3899 76.7371 89.8812 77.0949 89.7734C77.1132 89.7734 77.1133 89.7734 77.1133 89.7917C77.1499 90.0967 77.7782 93.9072 79.8989 96.0463C79.9172 96.0646 79.8989 96.0808 79.8806 96.0808C74.9579 94.8588 69.9417 97.1239 69.4577 97.3578C69.4577 97.3761 69.4395 97.3578 69.4395 97.3395Z" fill="#828282"/>
<path opacity="0.3" d="M98.8236 84.4003C96.6662 76.7794 90.0518 75.0002 89.1368 74.7847C89.1185 74.7847 89.1185 74.7481 89.1368 74.7481C96.4324 73.7253 103.155 78.3796 103.551 78.7395V78.7578C103.317 79.0262 99.1835 84.0058 98.8602 84.4003C98.8602 84.4186 98.8419 84.4186 98.8236 84.4003Z" fill="#828282"/>
<path opacity="0.3" d="M127.705 74.4216C127.705 74.4033 127.705 74.4033 127.723 74.4033C128.964 74.1166 129.917 74.1532 130.779 74.3504C130.798 74.3504 130.798 74.3687 130.798 74.3687C130.438 76.3085 129.468 78.0165 129.161 78.5208C129.126 78.5736 129.035 78.5736 129.019 78.5025C128.856 77.8721 128.246 75.609 127.705 74.4216Z" fill="#828282"/>
<path d="M114.515 93.2781C112.917 92.0195 112.359 91.0312 112.359 91.0312" stroke="#1F1F1F" stroke-width="0.8" stroke-linecap="round" stroke-linejoin="round"/>
<path d="M102.904 127.907C101.682 122.767 101.556 120.863 101.18 117.195" stroke="#E0E0E0" stroke-width="0.8" stroke-linecap="round" stroke-linejoin="round"/>
<path d="M103.551 78.7734L101.951 80.7153" stroke="#1F1F1F" stroke-width="0.8" stroke-linecap="round" stroke-linejoin="round"/>
<path d="M77.1113 89.7891C77.6685 93.1847 78.7482 94.3539 79.897 96.0436" stroke="#1F1F1F" stroke-width="0.8" stroke-linecap="round" stroke-linejoin="round"/>
<path d="M127.705 74.4219C128.12 75.465 128.533 76.5243 129.019 78.5028" stroke="#1F1F1F" stroke-width="0.8" stroke-linecap="round" stroke-linejoin="round"/>
</svg>
