<svg width="244" height="245" viewBox="0 0 244 245" fill="none" xmlns="http://www.w3.org/2000/svg">
<path d="M235.618 82.8707C244.6 108.737 214.201 149.283 178.795 173.051C143.386 196.996 102.799 203.986 67.7361 183.014C32.8482 162.041 3.48485 113.106 14.8837 83.7451C26.2846 54.3837 78.4457 44.4224 128.533 45.1199C178.622 45.8193 226.81 57.0047 235.618 82.8707Z" fill="#F5F5F5"/>
<path d="M37.2916 214.718H42.2957L99.2575 192.178C101.992 192.178 112.334 211.68 112.049 207.957L107.346 146.595C107.063 142.851 93.068 155.914 90.3494 155.914L36.5413 139.836H31.5373C28.8025 139.836 26.8342 142.874 27.1168 146.595L31.822 207.957C32.1046 211.68 34.5568 214.718 37.2916 214.718Z" fill="#1F1F1F"/>
<path d="M42.2955 214.718H112.633C115.369 214.718 117.338 211.68 117.053 207.957L112.35 146.595C112.065 142.851 109.615 139.836 106.897 139.836H36.5412C33.8064 139.836 31.8381 142.874 32.1207 146.595L36.8259 207.957C37.1085 211.68 39.5607 214.718 42.2955 214.718Z" fill="#08532F"/>
<path d="M147.619 139.508H205.557C210.5 139.508 214.511 143.361 214.511 148.109V206.093C214.511 210.843 210.5 214.696 205.557 214.696H147.619C142.676 214.696 138.666 210.843 138.666 206.093V148.125C138.666 143.375 142.676 139.508 147.619 139.508Z" fill="#0A7542"/>
<path d="M35.3665 207.349L28.5508 203.094L28.5691 203.057C32.9123 194.403 37.9224 187.695 40.218 187.467C40.3929 187.449 40.5861 187.467 40.7447 187.555C42.7231 188.553 40.3929 197.26 35.5414 206.965C35.4885 207.069 35.4356 207.174 35.3665 207.296V207.349Z" fill="#27B973"/>
<path opacity="0.2" d="M35.3665 207.349L28.5508 203.093L28.5691 203.057C29.112 202.005 29.6894 200.885 30.2852 199.781L30.3035 199.765L30.3381 199.781C31.371 200.22 32.5097 200.395 33.6321 200.289C35.7508 200.08 37.8533 198.801 39.8846 196.523L39.9374 196.558C38.7113 200.114 37.2392 203.599 35.5576 206.965C35.5068 207.068 35.4539 207.174 35.3828 207.296L35.3665 207.349Z" fill="#828282"/>
<path d="M5.05859 214.741V214.706C5.05859 209.905 8.96463 205.999 13.7653 206.016C18.564 206.016 22.4538 209.905 22.4538 214.706V214.741H5.05859Z" fill="#E0E0E0"/>
<path opacity="0.2" d="M9.66538 214.739V214.705C9.66538 214.686 9.49051 212.952 11.6967 211.464C12.1176 211.201 12.5547 210.955 13.0102 210.746C14.4478 210.063 16.0765 209.29 16.9 206.628L16.9183 206.594L16.9528 206.61C20.2814 207.907 22.4713 211.114 22.453 214.686V214.721L9.66538 214.739Z" fill="#E0E0E0"/>
<path d="M11.1542 197.272C13.95 196.088 15.7739 194.079 15.227 192.786C14.682 191.495 11.9696 191.407 9.1717 192.593C6.37384 193.776 4.54993 195.785 5.0969 197.076C5.64387 198.368 8.35634 198.455 11.1542 197.272Z" fill="#0A7542"/>
<path d="M5.02422 190.707C4.74362 192.09 6.93352 193.684 9.91032 194.28C10.0872 194.314 10.2438 194.351 10.4187 194.367C10.315 194.508 10.2275 194.648 10.1381 194.788C8.49309 197.346 8.12505 200.026 9.31659 200.778C10.5061 201.533 12.7834 200.079 14.4142 197.539C15.7623 195.437 16.2523 193.263 15.7277 192.125C15.2722 190.97 13.3629 189.796 10.927 189.304C7.95019 188.692 5.30482 189.323 5.02422 190.707Z" fill="#27B973"/>
<path d="M7.16211 193.336C8.03848 193.773 8.94941 194.088 9.91118 194.281C10.0881 194.316 10.2446 194.353 10.4195 194.369C10.3158 194.509 10.2284 194.649 10.1389 194.79C9.59601 195.63 9.15884 196.54 8.87824 197.504" stroke="#08532F" stroke-width="0.8" stroke-linecap="round" stroke-linejoin="round"/>
<path d="M15.709 192.128C22.5247 191.971 25.7476 198.732 23.6634 208.964" stroke="#828282" stroke-width="0.8" stroke-linecap="round" stroke-linejoin="round"/>
<path d="M23.4203 187.032C24.7562 186.603 25.0856 183.911 24.1564 181.017C23.2251 178.126 21.389 176.129 20.0531 176.558C18.7193 176.987 18.3899 179.679 19.3191 182.571C20.2504 185.464 22.0844 187.461 23.4203 187.032Z" fill="#0A7542"/>
<path d="M26.15 176.309C24.8019 175.906 23.0146 177.937 22.1565 180.845C22.1036 181.004 22.0691 181.179 22.0162 181.335C21.8922 181.231 21.7519 181.126 21.6136 181.02C19.2122 179.163 16.5852 178.549 15.7088 179.654C14.8507 180.758 16.0951 183.175 18.4945 185.032C20.4566 186.557 22.5937 187.24 23.7669 186.819C24.9584 186.469 26.3065 184.682 27.008 182.283C27.8844 179.391 27.4981 176.711 26.15 176.309Z" fill="#27B973"/>
<path d="M23.3302 178.203C22.8219 179.027 22.4193 179.919 22.157 180.848C22.1041 181.007 22.0695 181.182 22.0167 181.339C21.8926 181.235 21.7523 181.129 21.6141 181.023C20.8251 180.411 19.9488 179.903 19.0195 179.517" stroke="#08532F" stroke-width="0.8" stroke-linecap="round" stroke-linejoin="round"/>
<path d="M23.7852 186.836C24.749 189.445 26.3594 195.472 26.2028 206.927" stroke="#828282" stroke-width="0.8" stroke-linecap="round" stroke-linejoin="round"/>
<path d="M16.3242 214.746V214.711C16.3242 207.755 21.9647 202.133 28.9187 202.133C35.8564 202.133 41.4969 207.773 41.4969 214.711V214.746H16.3242Z" fill="#E0E0E0"/>
<path d="M16.3242 214.745V214.711C16.3242 212.031 17.164 209.523 18.6015 207.492" stroke="#828282" stroke-width="0.8" stroke-linecap="round" stroke-linejoin="round"/>
<path opacity="0.2" d="M29.2168 214.744V214.709C29.2168 214.673 29.4791 212.08 33.2448 211.59C37.0106 211.1 38.501 209.734 38.5539 206.739V206.633L38.6047 206.702C40.4794 208.945 41.5144 211.783 41.4961 214.709V214.744H29.2168Z" fill="#E0E0E0"/>
<path d="M225.478 182.039L220.994 213.363" stroke="#828282" stroke-width="0.8" stroke-linecap="round" stroke-linejoin="round"/>
<path d="M226.124 183.026C229.167 183.026 231.632 180.56 231.632 177.516C231.632 174.474 229.167 172.008 226.124 172.008C223.082 172.008 220.615 174.474 220.615 177.516C220.615 180.56 223.082 183.026 226.124 183.026Z" fill="#27B973"/>
<path d="M225.345 183.018C223.997 182.796 222.74 182.176 221.906 181.086C222.325 179.091 224.263 177.818 226.258 178.235C228.079 178.616 229.316 180.287 229.182 182.131C228.01 183.01 226.693 183.174 225.345 183.018Z" fill="#08532F"/>
<path d="M206.16 189.181C206.331 188.821 206.52 188.573 206.729 188.459C207.014 188.346 207.298 188.441 207.642 188.803C209.635 190.912 212.504 201.377 214.858 214.616H206.804C205.267 202.06 204.962 191.993 206.16 189.181Z" fill="#E0E0E0"/>
<path opacity="0.2" d="M214.346 211.901C214.517 212.794 214.688 213.707 214.841 214.638H206.787C206.331 210.933 205.989 207.456 205.762 204.305C205.762 204.305 209.218 210.838 214.346 211.901Z" fill="#E0E0E0"/>
<path d="M236.57 183.27C236.513 182.833 236.381 182.509 236.172 182.396C235.887 182.245 235.507 182.377 234.976 182.814C231.859 185.417 224.547 198.296 216.816 214.632H226.237C232.754 199.15 236.912 186.727 236.57 183.27Z" fill="#E0E0E0"/>
<path opacity="0.2" d="M218.715 210.704C218.089 211.995 217.46 213.306 216.834 214.636H226.256C229.428 207.113 232.031 200.313 233.835 194.898C233.816 194.898 228.213 206.657 218.715 210.704Z" fill="#E0E0E0"/>
<path d="M237.026 201.205C237.558 200.978 237.92 200.978 238.148 201.128C238.319 201.262 238.394 201.529 238.394 201.87C238.319 203.731 235.716 208.442 231.499 214.636H222.609C229.124 207.379 234.596 202.212 237.026 201.205Z" fill="#E0E0E0"/>
<path opacity="0.2" d="M236.229 207.133C235.051 209.221 233.455 211.767 231.499 214.636H222.609C223.541 213.609 224.433 212.621 225.326 211.671C225.326 211.671 231.062 211.976 236.229 207.133Z" fill="#E0E0E0"/>
<path d="M222.609 214.632C224.907 212.066 227.073 209.769 229.031 207.812" stroke="#828282" stroke-width="0.8" stroke-linecap="round" stroke-linejoin="round"/>
<path d="M116.409 210.935C116.285 207.737 113.656 205.195 110.433 205.195C107.743 205.195 105.462 206.981 104.72 209.435C104.545 209.41 104.36 209.398 104.173 209.398C101.421 209.398 99.2031 211.617 99.2031 214.37V214.567H119.955C119.917 212.597 118.367 211.011 116.409 210.935Z" fill="#E0E0E0"/>
<path d="M126.414 214.565H133.356C133.356 212.643 131.806 211.094 129.885 211.094C127.963 211.094 126.414 212.655 126.414 214.565Z" fill="#E0E0E0"/>
<path opacity="0.3" d="M106.666 212.46C104.918 211.828 103.368 210.923 102.104 209.858C102.736 209.559 103.443 209.398 104.186 209.398C104.373 209.398 104.558 209.41 104.733 209.435C105.477 206.981 107.756 205.195 110.446 205.195C113.669 205.195 116.298 207.749 116.422 210.935C117.067 210.96 117.675 211.159 118.195 211.468C115.442 213.538 111.005 214.046 106.666 212.46Z" fill="#E0E0E0"/>
<path d="M116.41 210.938C115.641 210.986 115.045 211.273 114.637 211.57" stroke="#1F1F1F" stroke-width="0.8" stroke-linecap="round" stroke-linejoin="round"/>
<path d="M104.719 209.438C107.173 209.686 108.09 211.743 108.09 211.743" stroke="#1F1F1F" stroke-width="0.8" stroke-linecap="round" stroke-linejoin="round"/>
<path opacity="0.3" d="M129.885 211.094C131.335 211.094 132.575 211.986 133.096 213.251C132.488 213.548 131.782 213.711 131.038 213.711C129.537 213.711 128.224 213.04 127.504 212.049C128.124 211.454 128.956 211.094 129.885 211.094Z" fill="#E0E0E0"/>
<path d="M216.406 87.9893L225.729 75.8828" stroke="#1F1F1F" stroke-width="0.8" stroke-linecap="round" stroke-linejoin="round"/>
<path d="M217.408 95.2905L227.815 94.6094" stroke="#1F1F1F" stroke-width="0.8" stroke-linecap="round" stroke-linejoin="round"/>
<path d="M8.1582 89.8162C10.0472 85.4282 13.7783 80.4466 18.3249 82.4738C24.0955 85.0561 22.8612 98.531 19.3537 97.4554C16.3505 96.5302 19.5693 83.6816 26.6819 86.3839" stroke="#1F1F1F" stroke-width="0.8" stroke-linecap="round" stroke-linejoin="round"/>
<path d="M136.403 162.177C136.614 161.98 136.864 161.795 137.09 161.648H137.102L145.872 165.201L155.486 170.815C155.486 170.815 155.498 170.827 155.486 170.827C155.077 171.659 154.628 172.519 154.164 173.389C154.164 173.389 154.152 173.403 154.152 173.389L135.163 163.92C135.163 163.92 135.148 163.907 135.163 163.907C135.518 163.155 135.941 162.6 136.403 162.177Z" fill="#444444"/>
<path d="M160.216 157.064L147.101 150.289C147.088 150.289 147.088 150.289 147.088 150.301C146.968 150.712 146.824 151.279 146.692 151.899C146.375 153.339 146.045 155.043 145.887 155.372C145.899 155.531 146.665 163.719 146.692 164.063C146.692 164.075 146.692 164.075 146.706 164.075H157.257L158.644 163.455C158.644 163.455 158.644 163.455 158.656 163.443C159.264 161.777 159.793 160.073 160.242 158.463L160.216 157.064C160.228 157.064 160.228 157.064 160.216 157.064Z" fill="#FFC99C"/>
<path d="M180.446 163.164L180.842 162.292C180.842 162.292 180.842 162.292 180.842 162.279C180.643 160.575 180.393 158.924 180.09 157.34L179.362 155.161L179.35 155.148L164.756 155.372C164.744 155.372 164.744 155.384 164.744 155.384L165.088 157.34C165.47 158.607 165.72 159.77 165.826 160.655L169.683 168.209C169.683 168.209 169.695 168.221 169.695 168.209L180.446 163.164Z" fill="#FFC99C"/>
<path d="M191.183 124.694L190.179 120.045L190.167 120.031L173.446 120.93L172.444 121.459C172.271 121.471 158.92 122.581 153.849 127.758C148.99 132.313 148.502 143.882 146.68 151.885V151.898C147.048 152.083 159.74 158.223 160.216 158.461C160.228 158.461 160.228 158.461 160.228 158.449C160.586 157.101 160.889 155.861 161.153 154.698C162.631 148.201 162.79 144.279 162.778 139.419C162.778 139.405 162.778 139.405 162.79 139.405L179.219 139.458C187.011 139.484 192.82 132.3 191.183 124.694Z" fill="#444444"/>
<path opacity="0.2" d="M162.775 139.41L159.922 132.214C159.922 132.2 159.91 132.2 159.896 132.214C155.288 135.925 156.199 143.914 161.15 154.676C161.15 154.69 161.177 154.69 161.177 154.676C162.643 148.192 162.801 144.243 162.775 139.41Z" fill="#1F1F1F"/>
<path d="M197.944 127.428C196.94 123.044 195.341 120.245 195.25 120.086H195.236L185.952 120.68C185.952 120.68 166.671 122.833 160.742 129.858C155.921 135.576 162.696 149.496 165.073 157.314L165.087 157.326H180.075C180.089 157.326 180.089 157.314 180.089 157.314C178.794 150.566 176.629 144.636 174.054 139.525C174.054 139.512 174.054 139.512 174.067 139.512H183.827H186.283C195.091 139.525 198.855 134.401 198.156 128.671C198.115 128.248 198.036 127.837 197.944 127.428Z" fill="#444444"/>
<path opacity="0.2" d="M171.598 134.915L174.066 139.498C174.066 139.498 180.022 139.498 182.677 139.498C183.23 139.498 183.641 139.498 183.826 139.498C178.503 139.498 173.525 134.348 171.61 134.901C171.598 134.901 171.584 134.915 171.598 134.915Z" fill="#1F1F1F"/>
<path d="M168.519 124.891C165.324 126.172 162.472 127.81 160.741 129.856C157.348 133.872 159.698 141.954 162.207 149.112" stroke="#1F1F1F" stroke-width="0.8" stroke-linecap="round" stroke-linejoin="round"/>
<path d="M165.088 157.344H179.958" stroke="#1F1F1F" stroke-width="0.8" stroke-linecap="round" stroke-linejoin="round"/>
<path d="M146.73 151.914L160.096 158.413" stroke="#1F1F1F" stroke-width="0.8" stroke-linecap="round" stroke-linejoin="round"/>
<path d="M160.86 170.457C160.848 170.457 160.848 170.445 160.848 170.431C162.405 167.843 165.852 167.17 165.878 161.928C165.892 161.505 165.866 161.043 165.813 160.606C165.813 160.594 165.813 160.594 165.825 160.594H169.286C170.514 160.594 171.466 161.69 171.266 162.918L170.726 166.285C170.726 166.299 170.738 166.311 170.752 166.299C171.108 165.968 174.845 162.548 180.841 162.283C180.854 162.283 180.854 162.283 180.854 162.298C181.039 163.841 181.159 165.48 181.25 167.064C181.303 168.16 181.344 169.296 181.356 170.445C181.356 170.457 181.356 170.457 181.344 170.457C180.974 170.498 171.161 171.435 171.096 171.448C171.029 171.448 161.389 170.498 160.86 170.457Z" fill="white"/>
<path d="M160.848 170.453L181.356 170.467C181.37 170.467 181.37 170.467 181.37 170.48C181.383 171.417 181.37 172.409 181.356 173.385C181.356 173.399 181.356 173.399 181.344 173.399H160.108C160.096 173.399 160.096 173.399 160.096 173.385C160.122 172.224 160.293 171.352 160.848 170.453C160.834 170.453 160.834 170.453 160.848 170.453Z" fill="#444444"/>
<path d="M165.562 164.805L167.754 165.716" stroke="#828282" stroke-width="0.8" stroke-linecap="round" stroke-linejoin="round"/>
<path d="M164.479 166.812L166.315 168.041" stroke="#828282" stroke-width="0.8" stroke-linecap="round" stroke-linejoin="round"/>
<path d="M170.713 166.32L169.881 170.468" stroke="#444444" stroke-width="0.8" stroke-linecap="round" stroke-linejoin="round"/>
<path d="M137.116 161.644C137.102 161.644 137.102 161.632 137.116 161.618C139.678 160.008 143.11 160.919 145.461 156.23C145.593 155.967 145.725 155.677 145.872 155.372C145.872 155.359 145.884 155.359 145.884 155.359L148.34 156.547C149.609 157.155 150.032 158.765 149.225 159.928L147.482 162.452C147.47 162.464 147.482 162.478 147.496 162.478C147.97 162.332 152.988 160.88 158.629 163.442L158.641 163.454C158.112 164.881 157.559 166.28 156.937 167.706C156.502 168.71 156 169.768 155.497 170.796C155.497 170.796 155.485 170.811 155.485 170.796C154.839 170.506 137.736 162.041 137.116 161.644Z" fill="white"/>
<path d="M143.613 158.914L145.173 160.616" stroke="#828282" stroke-width="0.8" stroke-linecap="round" stroke-linejoin="round"/>
<path d="M141.844 160.008L142.728 161.868" stroke="#828282" stroke-width="0.8" stroke-linecap="round" stroke-linejoin="round"/>
<path d="M147.443 162.477L144.922 165.579" stroke="#444444" stroke-width="0.8" stroke-linecap="round" stroke-linejoin="round"/>
<path d="M174.054 139.517C174.054 139.517 172.191 136.03 171.598 134.922" stroke="#1F1F1F" stroke-width="0.8" stroke-linecap="round" stroke-linejoin="round"/>
<path d="M165.719 102.931C164.861 104.012 164.267 104.738 164.176 104.858C164.176 104.87 164.162 104.858 164.149 104.858C163.964 104.356 160.53 95.0189 158.814 91.5602C157.043 87.9938 156.199 85.9462 155.156 86.5277C154.31 87.0035 154.865 90.5435 154.93 90.9787C154.93 90.9909 154.918 91.0051 154.904 90.9909C154.692 90.7672 153.464 89.472 152.421 88.9453C151.114 88.2316 149.768 88.9311 149.873 90.1592C149.873 90.1735 149.873 90.1735 149.859 90.1735C149.78 90.147 149.41 90.0413 149.001 90.1064C148.566 90.147 148.064 90.5435 147.944 91.2959C147.944 91.2959 147.944 91.3081 147.932 91.3081C147.812 91.3081 146.533 91.7452 146.768 92.9998C146.783 93.0527 146.742 93.0913 146.703 93.1055C144.696 93.4614 146.677 97.6073 147.787 97.5016C147.97 97.5016 148.143 97.463 148.302 97.3694C148.381 97.3572 148.499 97.1315 148.552 97.2251C149.371 98.744 151.14 99.9579 152.342 100.157C152.342 100.157 152.356 100.157 152.356 100.169C152.409 100.71 154.113 118.697 163.342 118.538C165.813 118.538 167.952 117.628 169.562 116.599C170.619 115.897 171.451 115.186 171.992 114.604V114.59C171.886 114.313 169.694 107.341 169.656 107.209L165.746 102.931C165.733 102.916 165.733 102.916 165.719 102.931Z" fill="#FFC99C"/>
<path d="M174.317 89.791C175.809 91.1777 178.571 90.519 178.809 90.4661C178.821 90.4661 178.821 90.4661 178.821 90.4783V91.9037V92.2087L178.835 99.0102C178.835 99.0224 178.847 99.0224 178.847 99.0224L188.554 97.5177C188.554 97.5177 188.567 97.5177 188.567 97.5035L188.898 92.8288L188.91 88.2863L188.131 82.7008C188.131 79.5044 188.819 76.2693 185.372 74.7891C181.515 73.1116 177.369 74.051 175.836 76.0437C174.966 77.2067 173.67 77.959 173.565 79.5044C173.5 80.6268 173.526 81.8936 173.459 82.7537C173.288 84.7728 172.284 87.9569 174.317 89.791Z" fill="#FFC99C"/>
<path opacity="0.2" d="M178.82 90.4643V91.8653C178.82 91.8775 178.835 91.8775 178.847 91.8775L181.673 89.3155C181.687 89.3033 181.673 89.2891 181.661 89.2891C180.248 90.0821 178.952 90.4257 178.82 90.4643Z" fill="#1F1F1F"/>
<path d="M173.564 79.4913C173.564 79.4913 174.463 79.6763 175.547 78.7918C175.571 78.7796 175.598 78.7796 175.612 78.8061C175.756 79.1497 176.655 80.9187 179.164 79.9407C179.178 79.9407 179.178 79.9407 179.178 79.9549C179.138 82.0004 181.33 82.8199 181.476 82.8727H181.488C181.608 82.7019 184.05 79.229 186.019 80.8658C188.249 82.7141 185.504 86.3863 185.358 86.5571V86.5714C186.257 87.5474 187.538 88.1675 188.871 88.2611C188.884 88.2611 188.884 88.2611 188.884 88.2468L188.898 82.6877C188.898 79.4913 188.778 75.1217 185.331 73.6414C181.476 71.9639 176.285 73.312 174.766 75.3189C173.961 76.4555 173.67 77.8809 173.564 79.4913Z" fill="#1F1F1F"/>
<path d="M183.363 84.2568L184.526 83.0938" stroke="#1F1F1F" stroke-width="0.8" stroke-linecap="round"/>
<path d="M181.647 89.2891C181.647 89.2891 179.678 90.2793 178.82 90.4643" stroke="#1F1F1F" stroke-width="0.8" stroke-linecap="round"/>
<path d="M176.18 87.0094C176.735 87.1151 177.158 86.8122 177.29 86.375" stroke="#1F1F1F" stroke-width="0.8" stroke-linecap="round"/>
<path d="M175.942 85.2821C175.798 85.2292 175.692 85.1235 175.625 84.9913C175.56 84.7798 175.692 84.4098 175.783 84.1719" stroke="#1F1F1F" stroke-width="0.8" stroke-linecap="round"/>
<path d="M174.569 82.6875C175.124 82.6997 175.124 83.5191 174.569 83.5313C174.014 83.5191 174.014 82.6997 174.569 82.6875Z" fill="#1F1F1F"/>
<path d="M178.041 82.8594C178.596 82.8716 178.596 83.691 178.041 83.7032C177.486 83.691 177.486 82.8716 178.041 82.8594Z" fill="#1F1F1F"/>
<path d="M203.583 105.677C200.677 100.565 196.993 96.6164 195.065 95.2175C193.217 93.843 191.155 92.7877 188.91 92.1919H188.898C188.778 92.3912 186.548 96.1406 182.837 96.1406C179.006 96.1406 178.835 92.444 178.821 92.1919C178.821 92.1797 178.809 92.1797 178.809 92.1797C173.526 92.867 169.431 98.3326 165.734 102.889V102.903L168.534 108.119L171.993 114.55C171.993 114.565 172.007 114.565 172.019 114.55C172.509 114.048 172.932 113.546 173.315 112.993C173.327 112.979 173.341 112.993 173.341 113.005L172.416 121.511C172.416 121.523 172.416 121.523 172.43 121.523H195.962C195.976 121.523 195.976 121.523 195.976 121.511L195.567 109.703L203.583 105.677C203.583 105.689 203.583 105.689 203.583 105.677Z" fill="#27B973"/>
<path d="M146.812 93.0859C147.036 94.2754 147.789 96.6524 149.228 96.2681C149.228 96.2681 149.942 96.0566 150.1 95.1599" stroke="#1F1F1F" stroke-width="0.8" stroke-linecap="round" stroke-linejoin="round"/>
<path d="M147.934 91.2969C148.184 92.6307 149.135 95.0219 150.099 95.1399C151.063 95.2598 151.26 93.7796 151.26 93.7796" stroke="#1F1F1F" stroke-width="0.8" stroke-linecap="round" stroke-linejoin="round"/>
<path d="M149.873 90.1797C149.967 91.1699 150.731 93.9841 151.736 93.9434C152.74 93.9048 152.699 92.4509 152.396 91.1435" stroke="#1F1F1F" stroke-width="0.8" stroke-linecap="round" stroke-linejoin="round"/>
<path d="M148.5 97.1904C148.738 96.7024 148.5 96.2266 148.5 96.2266" stroke="#1F1F1F" stroke-width="0.8" stroke-linecap="round" stroke-linejoin="round"/>
<path opacity="0.2" d="M197.943 127.428C196.939 123.044 195.341 120.245 195.249 120.086H195.235L185.951 120.68C185.924 120.68 173.484 122.213 180.959 123.295L198.128 128.656C198.14 128.656 198.14 128.656 198.14 128.644C198.114 128.234 198.035 127.851 197.943 127.428Z" fill="#1F1F1F"/>
<path opacity="0.2" d="M165.179 103.609C164.597 104.335 164.215 104.811 164.162 104.876V104.89L164.967 106.95C164.967 106.964 164.994 106.964 164.994 106.95L165.205 103.636C165.205 103.609 165.193 103.609 165.179 103.609Z" fill="#1F1F1F"/>
<path opacity="0.2" d="M169.603 116.561C171.201 115.477 172.389 114.343 173.34 112.982C173.353 112.81 173.855 108.135 173.961 106.933C173.961 106.907 173.922 106.895 173.908 106.921C173.393 108.07 169.853 115.914 169.562 116.547C169.577 116.561 169.589 116.573 169.603 116.561Z" fill="#1F1F1F"/>
<path d="M165.008 106.871L164.162 104.891" stroke="#1F1F1F" stroke-width="0.8" stroke-linecap="round"/>
<path d="M173.355 112.979L173.99 106.773" stroke="#1F1F1F" stroke-width="0.8" stroke-linecap="round"/>
<path opacity="0.2" d="M192.609 111.202C192.162 110.238 191.645 109.128 191.169 107.993C191.157 107.953 191.09 107.967 191.09 108.005L190.787 121.541L190.801 121.556H195.978L195.99 121.541L194.248 110.397L192.623 111.214C192.609 111.202 192.609 111.202 192.609 111.202Z" fill="#1F1F1F"/>
<path d="M179.56 119.205C179.572 119.205 179.587 119.219 179.572 119.231C178.767 119.575 175.215 120.961 174.489 121.555C173.102 122.665 175.559 123.101 175.744 123.141C175.756 123.141 175.756 123.153 175.756 123.153C175.624 124.502 177.633 124.422 177.818 124.408C177.83 124.408 177.83 124.408 177.83 124.422C177.818 124.54 177.83 125.36 179.731 125.36C181.793 125.36 188.659 123.326 188.765 123.286C202.38 124.276 215.097 126.045 203.594 105.709C203.594 105.709 203.582 105.695 203.582 105.709C203.397 105.801 200.691 107.094 197.996 108.375C195.341 109.644 192.805 111.122 192.62 111.228C192.62 111.228 192.608 111.242 192.62 111.242C193.44 112.985 194.06 114.107 194.139 114.254C194.139 114.266 194.139 114.266 194.127 114.266C193.69 114.319 185.965 115.349 181.779 116.34C172.059 118.308 171.228 121.332 179.56 119.205Z" fill="#FFC99C"/>
<path d="M194.127 114.25L190.957 114.699" stroke="#1F1F1F" stroke-width="0.8" stroke-linecap="round"/>
<path d="M191.102 107.82L192.608 111.2" stroke="#1F1F1F" stroke-width="0.8" stroke-linecap="round"/>
<path d="M182.863 122.664L177.83 124.421" stroke="#1F1F1F" stroke-width="0.8" stroke-linecap="round"/>
<path d="M182.004 120.812L175.758 123.151" stroke="#1F1F1F" stroke-width="0.8" stroke-linecap="round"/>
<path d="M181.17 118.648L179.572 119.23" stroke="#1F1F1F" stroke-width="0.8" stroke-linecap="round"/>
<path d="M154.918 90.9922L155.156 91.9031C155.156 91.9031 153.652 93.7535 153.373 95.984" stroke="#1F1F1F" stroke-width="0.8" stroke-linecap="round" stroke-linejoin="round"/>
<path d="M197.732 126.797H193.942C193.651 126.797 193.426 127.061 193.478 127.352L194.086 130.918C194.365 132.555 195.382 133.771 197.057 133.771H197.336" stroke="#1F1F1F" stroke-width="0.8" stroke-linecap="round"/>
<path d="M50.1599 117.517C50.3084 116.938 50.4202 116.356 50.5056 115.775C48.0697 111.064 47.1059 105.08 47.6244 98.4631C47.9843 95.2728 49.7024 93.516 51.8537 92.5644C53.5719 91.81 55.5767 91.5762 57.3945 91.5375C57.3803 91.2671 57.3559 90.6225 57.3559 90.1894L67.002 90.1406L66.693 92.3041C69.0171 93.0341 70.8715 93.0707 71.8495 93.6644C72.4168 93.9999 72.7767 94.2968 72.9983 94.5306C75.904 97.1902 77.1545 110.94 77.1667 111.076C77.1911 111.112 78.6246 112.597 80.3936 114.439C82.0263 116.145 84.1776 120.622 84.1776 120.622L81.0869 122.971C84.5355 124.134 87.9616 125.382 89.9523 126.385C95.1332 128.969 95.9364 133.902 96.5809 137.871C96.6541 138.268 96.7151 138.664 96.7904 139.046C97.1116 140.864 97.5325 144.315 97.9412 147.887C98.6204 153.934 96.8148 158.782 96.827 158.882L68.4355 159.363C68.4355 159.363 67.5958 153.54 68.1387 150.659C68.2139 150.262 68.3115 149.817 68.3867 149.435C69.5112 144.054 70.9955 140.197 71.1927 139.689C71.207 139.664 71.1805 139.64 71.1561 139.64H65.7902H58.0737C52.484 139.64 49.3059 135.338 48.515 133.111C47.5634 130.254 47.3661 126.631 49.9505 118.272C50.0237 118.014 50.0989 117.765 50.1599 117.517Z" fill="white"/>
<path d="M95.3941 174.321H105.571C105.632 174.321 105.683 174.272 105.683 174.211C105.534 169.906 100.772 169.882 99.7719 164.565C99.5482 163.477 99.288 160.756 99.2758 160.496C99.2758 160.484 99.2636 160.484 99.2636 160.484C98.8569 160.447 92.153 159.359 92.153 159.359C92.153 159.359 84.9693 160.398 84.709 160.398C84.8208 162.798 85.1299 165.592 85.5508 167.842C85.6626 167.879 91.1526 169.809 91.4129 169.906C91.4129 169.906 91.4251 169.906 91.4251 169.921C91.5735 170.106 94.2941 173.32 94.9854 174.148C95.0851 174.247 95.2335 174.321 95.3941 174.321Z" fill="#828282"/>
<path d="M91.4114 169.912C91.4114 169.9 91.4114 169.9 91.4114 169.912C88.9999 167.909 85.7974 167.836 85.5493 167.836C85.5371 167.836 85.5371 167.836 85.5371 167.836C86.1186 171.075 86.6494 172.881 87.0215 174.341C87.1435 174.341 89.6058 174.341 90.3724 174.341C90.5086 174.341 90.6184 174.241 90.6449 174.117L91.4114 169.912Z" fill="#444444"/>
<path d="M87.8623 174.216C87.4923 168.527 80.5667 170.432 81.1849 160.489C81.0364 160.516 74.3712 158.438 74.3712 158.438C74.3712 158.438 67.4111 160.465 67.1264 160.552C67.0756 162.988 67.1996 165.721 67.4721 168.033C67.5961 168.069 73.4074 169.838 73.5802 169.887C73.8893 170.235 76.7339 173.635 77.2646 174.265C77.3032 174.314 77.3642 174.34 77.4252 174.34C78.4399 174.34 86.6139 174.34 87.7261 174.34C87.8135 174.34 87.8745 174.277 87.8623 174.216Z" fill="#828282"/>
<path d="M73.5803 169.881C71.244 168.076 67.4844 168.039 67.4844 168.039C67.7324 170.066 68.0781 172.181 68.5478 174.21C68.5722 174.283 68.6352 174.346 68.7206 174.346H72.6287C72.7141 174.346 72.7893 174.283 72.8137 174.198L73.5925 169.906C73.5925 169.881 73.5925 169.881 73.5803 169.881Z" fill="#444444"/>
<path d="M80.6301 123.317L84.7232 118.976C83.3121 117.504 82.0148 116.131 80.3942 114.438C79.8005 114.995 79.467 115.749 79.404 116.552C79.404 116.589 79.3552 116.627 79.3186 116.601C76.8827 115.55 73.3589 115.725 72.8262 120.942C72.8384 120.942 80.6301 123.317 80.6301 123.317Z" fill="#27B973"/>
<path d="M67.0271 90.1891L66.9518 90.5612C66.9518 90.2765 67.2487 90.0427 67.5334 90.1037C68.2023 90.2521 68.7452 90.5734 70.4268 89.8678C70.4268 89.8678 70.4268 89.8678 70.439 89.8678C70.9961 89.8678 71.5024 89.6096 71.9599 89.3371C73.6679 88.2859 73.4443 85.8622 73.0234 83.6865C73.0112 83.6235 73.0376 83.5625 73.0742 83.5259C73.2958 83.3266 73.9648 82.6719 73.9384 82.19C73.914 81.7691 73.0864 81.4234 72.7773 81.3116C72.7021 81.2872 72.6655 81.2241 72.6533 81.1509C72.5801 79.6666 72.5801 78.1335 72.271 76.7976C71.4414 75.301 70.6993 74.6829 69.402 73.9041C66.9905 72.2734 62.8608 71.5678 60.2764 73.0644C57.4074 74.6585 57.3687 78.9488 57.3687 80.7809C57.3565 81.6959 57.4196 86.889 57.4562 90.2033C57.4562 90.1891 67.0515 90.2277 67.0271 90.1891Z" fill="#FFC99C"/>
<path opacity="0.2" d="M71.1928 139.629H65.8757C65.8513 139.629 65.8513 139.604 65.8635 139.592C66.26 139.332 68.5109 137.886 70.8594 136.526C71.7012 136.042 72.2441 135.969 72.4922 135.969C72.5654 135.969 72.604 136.042 72.5796 136.105L71.2437 139.592C71.2315 139.617 71.2071 139.629 71.1928 139.629Z" fill="#444444"/>
<path d="M70.6124 80.6641C70.0797 80.6763 70.0797 81.4672 70.6124 81.4794C71.1431 81.4672 71.1431 80.6763 70.6124 80.6641Z" fill="#1F1F1F"/>
<path d="M72.2701 76.7957C71.9468 75.2504 71.1436 74.1869 70.068 73.457C67.8801 72.851 66.6174 72.6782 64.6146 72.6172C62.933 72.6172 61.5117 72.8388 60.6699 73.6928C60.7065 73.6562 63.2543 79.3679 66.7537 79.1218C70.5011 78.8494 72.2701 76.8079 72.2701 76.7957Z" fill="#444444"/>
<path d="M92.4488 128.066C93.439 126.199 86.2797 120.41 84.7221 118.977C84.6347 119.052 80.1085 122.588 80.1329 122.576C80.1573 122.588 81.4566 123.118 81.4078 123.094C81.3956 123.106 82.2354 124.33 83.1748 125.394C84.1162 126.469 85.9706 128.448 86.8856 127.311C87.1316 126.805 86.7494 125.863 86.4647 125.284C86.3529 124.999 86.0804 124.715 86.2675 124.826C88.3821 125.766 90.4704 126.841 92.4488 128.066Z" fill="#FFC99C"/>
<path d="M80.8502 130.496C81.9136 129.866 81.0718 126.849 81.0596 126.824C81.023 126.761 83.4712 130.236 84.5102 128.988C84.9189 128.221 83.1133 124.955 83.1011 124.919C80.9112 120.801 78.278 117.672 73.455 115.781C73.2211 115.694 72.7392 115.881 72.7392 115.881L70.2891 122.57C71.2427 123.498 72.3183 124.289 73.4672 124.919C73.4794 124.97 74.4208 129.655 76.2264 129.939C76.4968 129.978 76.7693 129.927 77.0174 129.791C77.0174 129.791 77.4505 130.496 78.0564 130.596C78.5139 130.657 78.8718 130.409 79.2296 129.89C79.3171 130.051 80.1568 130.978 80.8502 130.496Z" fill="#FFC99C"/>
<path opacity="0.2" d="M50.5063 115.781C51.0004 116.721 51.5819 117.672 52.1879 118.502C52.7084 119.059 54.0179 119.986 54.0179 119.986C55.9841 121.271 63.7128 124.882 67.6819 126.527L66.8177 129.012C66.7913 129.075 66.7181 129.112 66.6571 129.087C53.8084 124.079 51.0634 120.244 50.1484 117.526C50.3091 116.932 50.4209 116.351 50.5063 115.781Z" fill="#444444"/>
<path opacity="0.2" d="M68.9568 114.127C69.7112 111 70.6262 107.252 70.736 106.795C70.736 106.77 70.7746 106.758 70.7868 106.77C71.9478 107.586 71.3541 111.964 72.2833 115.302C71.9743 116.168 70.7868 116.329 70.3049 116.217C69.8474 116.118 68.7087 115.388 68.9568 114.127Z" fill="#444444"/>
<path d="M54.0176 119.98C55.5385 117.666 58.4706 117.147 60.5588 117.147C61.7829 117.147 62.8341 117.308 63.3546 117.42C63.4909 117.444 63.6007 117.308 63.5519 117.184C63.07 115.96 62.9703 114.093 63.7491 112.696C63.7613 112.672 63.7877 112.672 63.7999 112.672C65.6909 113.142 67.3603 113.623 68.9565 114.13C69.723 114.378 70.4652 114.636 71.2074 114.896C71.553 115.02 71.9109 115.157 72.2708 115.305C72.6897 115.466 73.0984 115.639 73.4562 115.787L73.0109 117.111L71.9983 120.153L69.6722 127.127C69.6478 127.212 69.5624 127.251 69.475 127.224C69.0541 127.088 68.4359 126.842 67.6816 126.533C63.7125 124.888 55.9838 121.277 54.0176 119.98C54.0176 119.992 54.0176 119.992 54.0176 119.98Z" fill="#27B973"/>
<path d="M67.1387 160.552C67.3115 160.552 98.7204 160.489 99.2633 160.489C99.2633 160.489 99.2633 160.489 99.2633 160.477C99.2389 160.219 98.6452 153.417 97.9538 147.864C97.1486 147.431 96.2967 147.222 95.4305 147.222C92.0917 147.037 88.4439 151.303 87.2809 153.244C87.2199 153.342 87.0714 153.354 86.9962 153.257C86.1076 151.969 85.0686 151.315 83.8933 151.315C81.9515 151.191 79.5034 153.639 78.4033 155.087C78.2915 155.223 78.0821 155.135 78.1065 154.963C78.4155 152.687 78.7978 146.246 74.5827 146.258C72.6409 146.258 70.2781 147.852 68.1513 150.634C67.5453 153.899 67.1753 157.238 67.1387 160.552Z" fill="#27B973"/>
<path d="M64.4169 99.6971C67.7678 99.6971 70.6125 97.3974 71.8487 93.6886C71.8487 93.6744 71.8487 93.6744 71.8487 93.6622C71.7735 93.6134 71.316 93.3165 71.0578 93.1803C70.3278 92.798 69.5978 92.4889 69.425 92.4137C69.4128 92.4015 69.4006 92.3893 69.425 92.3771C70.1549 91.5617 70.464 90.0022 70.4518 89.8659C70.4518 89.8659 70.4518 89.8537 70.4376 89.8537C69.0041 89.8293 67.7048 89.8049 67.2615 89.6199C67.1985 89.5955 67.1497 89.5447 67.1253 89.4715C65.9622 86.5028 66.865 83.0156 67.8288 80.1588C68.695 77.6497 70.0309 73.5566 70.0919 73.4447C68.7072 72.5541 66.7166 72.0234 64.6772 72.0234C58.7276 72.0478 57.2697 75.5228 56.8 80.6671C56.2673 86.2812 51.5073 87.308 51.6313 91.153C51.6557 91.8444 51.8651 92.5499 51.8773 92.5743C52.831 92.2287 53.746 91.9684 54.7098 91.7834C56.8732 96.7427 60.521 99.6971 64.4169 99.6971Z" fill="#444444"/>
<path opacity="0.2" d="M64.3297 96.0093C66.0357 96.0093 69.165 95.6759 71.0316 93.2135C71.0438 93.2013 71.0316 93.1891 71.0194 93.1891C70.3036 92.819 69.5859 92.51 69.413 92.4347C69.3886 92.4225 69.3622 92.4347 69.35 92.4469C68.7075 93.1525 67.1499 94.2159 64.4781 94.3766C63.6628 94.4884 62.215 94.5006 61.054 94.5738C58.4574 94.7344 61.9568 96.0947 64.3297 96.0093Z" fill="#1F1F1F"/>
<path opacity="0.2" d="M51.853 92.5781C52.7558 92.2324 54.1039 91.8867 54.6854 91.7871C54.3763 91.0083 54.1527 90.1421 54.0286 89.3268C54.0286 89.3146 54.0164 89.3024 54.0042 89.3024C53.7196 89.2515 53.5976 89.5606 53.4227 89.9449C53.1645 90.5142 52.8554 91.2056 51.9526 91.2056C51.8286 91.2056 51.7533 91.1812 51.6313 91.1568C51.6313 91.1568 51.6191 91.1568 51.6191 91.169C51.6435 91.7993 51.7167 92.0962 51.853 92.5781Z" fill="#1F1F1F"/>
<path d="M79.875 166.332L81.7416 165.578" stroke="#F5F5F5" stroke-width="0.8" stroke-linecap="round" stroke-linejoin="round"/>
<path d="M80.875 168.329L82.6074 167.266" stroke="#F5F5F5" stroke-width="0.8" stroke-linecap="round" stroke-linejoin="round"/>
<path d="M98.1758 166.335L99.9448 165.617" stroke="#F5F5F5" stroke-width="0.8" stroke-linecap="round" stroke-linejoin="round"/>
<path d="M99.1523 168.323L100.846 167.359" stroke="#F5F5F5" stroke-width="0.8" stroke-linecap="round" stroke-linejoin="round"/>
<path d="M70.2168 84.1016C70.4649 84.5977 70.8715 84.7197 71.5405 84.7197" stroke="#1F1F1F" stroke-width="0.8" stroke-linecap="round" stroke-linejoin="round"/>
<path d="M68.9805 114.057L70.723 106.773" stroke="#444444" stroke-width="0.8" stroke-linecap="round" stroke-linejoin="round"/>
<path d="M72.6152 135.977L71.2305 139.637" stroke="#444444" stroke-width="0.8" stroke-linecap="round" stroke-linejoin="round"/>
<path d="M81.0722 126.88C80.8506 125.804 80.5537 124.456 80.1328 123.195" stroke="#1F1F1F" stroke-width="0.8" stroke-linecap="round" stroke-linejoin="round"/>
<path d="M77.9824 123.516C78.6514 125.84 79.0215 128.326 79.1943 129.872" stroke="#1F1F1F" stroke-width="0.8" stroke-linecap="round" stroke-linejoin="round"/>
<path d="M75.5957 123.883C76.0918 125.739 76.7832 128.149 77.019 129.794" stroke="#1F1F1F" stroke-width="0.8" stroke-linecap="round" stroke-linejoin="round"/>
<path d="M81.1719 121.758C81.8774 122.785 82.5322 123.836 83.1259 124.924C83.1259 124.924 83.2865 125.16 83.6322 125.902" stroke="#1F1F1F" stroke-width="0.8" stroke-linecap="round" stroke-linejoin="round"/>
<path d="M85.4375 123.695L86.1797 124.795" stroke="#1F1F1F" stroke-width="0.8" stroke-linecap="round" stroke-linejoin="round"/>
<path d="M63.7601 112.655C62.0785 112.224 60.8809 112.012 60.7568 111.964L59.0488 105.953" stroke="#444444" stroke-width="0.8" stroke-linecap="round" stroke-linejoin="round"/>
<path d="M50.5059 115.781C50.9512 116.696 51.5693 117.648 52.2261 118.427C52.6449 118.911 53.2265 119.504 54.0174 119.986" stroke="#444444" stroke-width="0.8" stroke-linecap="round" stroke-linejoin="round"/>
<path d="M64.4785 94.37C68.0897 94.0976 69.4256 92.3672 69.4256 92.3672" stroke="#1F1F1F" stroke-width="0.8" stroke-linecap="round" stroke-linejoin="round"/>
<path d="M54.6865 91.7806C54.4263 91.2113 54.105 89.79 54.0176 89.3203" stroke="#1F1F1F" stroke-width="0.8" stroke-linecap="round" stroke-linejoin="round"/>
<path d="M67.0995 89.4799C66.9775 89.1343 66.8413 88.6625 66.7051 88.0078" stroke="#1F1F1F" stroke-width="0.8" stroke-linecap="round" stroke-linejoin="round"/>
<path d="M118.783 83.3784C133.846 84.7682 147.222 74.0842 148.659 59.5156C150.096 44.9471 139.048 32.0111 123.984 30.6213C108.919 29.233 95.543 39.917 94.1059 54.4855C92.6704 69.0527 103.718 81.9901 118.783 83.3784Z" fill="#27B973"/>
<path opacity="0.2" d="M118.582 70.3112C118.008 70.2581 117.485 69.9994 117.122 69.561L108.525 59.4937C107.761 58.5983 107.891 57.2819 108.815 56.5561C109.741 55.8303 111.104 55.941 111.854 56.8364L118.882 65.0656L131.199 52.3667C132.02 51.5203 133.385 51.4786 134.247 52.2705C135.122 53.0652 135.166 54.3831 134.346 55.2167L120.34 69.6473C119.921 70.0842 119.319 70.3227 118.698 70.3069C118.669 70.3055 118.625 70.3141 118.582 70.3112Z" fill="#1F1F1F"/>
<path d="M118.933 66.7328C118.361 66.6796 117.836 66.4223 117.475 65.9826L108.878 55.9166C108.113 55.0213 108.242 53.7034 109.168 52.9776C110.092 52.2518 111.455 52.3639 112.205 53.2579L119.235 61.4871L131.551 48.7897C132.372 47.9418 133.736 47.9001 134.598 48.6934C135.475 49.4867 135.518 50.8061 134.697 51.6396L120.691 66.0702C120.272 66.5071 119.67 66.7457 119.05 66.7299C119.021 66.727 118.976 66.7371 118.933 66.7328Z" fill="white"/>
</svg>
